<mxfile host="app.diagrams.net" modified="2023-12-28T17:18:43.461Z" agent="Mozilla/5.0 (Windows NT 10.0; Win64; x64) AppleWebKit/537.36 (KHTML, like Gecko) Chrome/120.0.0.0 Safari/537.36" etag="z1X4_j1E3rlBtObEiqXZ" version="22.1.15" type="github">
  <diagram name="Page-1" id="LcWGvoYMxE6iOq-XE7FD">
    <mxGraphModel dx="1050" dy="522" grid="1" gridSize="10" guides="1" tooltips="1" connect="1" arrows="1" fold="1" page="1" pageScale="1" pageWidth="850" pageHeight="1100" math="0" shadow="0">
      <root>
        <mxCell id="0" />
        <mxCell id="1" parent="0" />
        <mxCell id="bjsVHaiQ5fxiq1dF0tkW-1" value="" style="image;aspect=fixed;html=1;points=[];align=center;fontSize=12;image=img/lib/azure2/analytics/Data_Lake_Store_Gen1.svg;" vertex="1" parent="1">
          <mxGeometry x="310" y="190" width="64" height="52" as="geometry" />
        </mxCell>
        <mxCell id="bjsVHaiQ5fxiq1dF0tkW-2" value="" style="image;aspect=fixed;html=1;points=[];align=center;fontSize=12;image=img/lib/azure2/analytics/Data_Lake_Store_Gen1.svg;" vertex="1" parent="1">
          <mxGeometry x="470" y="190" width="64" height="52" as="geometry" />
        </mxCell>
        <mxCell id="bjsVHaiQ5fxiq1dF0tkW-3" value="" style="image;aspect=fixed;html=1;points=[];align=center;fontSize=12;image=img/lib/azure2/databases/Data_Factory.svg;" vertex="1" parent="1">
          <mxGeometry x="374" y="70" width="68" height="68" as="geometry" />
        </mxCell>
        <mxCell id="bjsVHaiQ5fxiq1dF0tkW-4" value="" style="image;sketch=0;aspect=fixed;html=1;points=[];align=center;fontSize=12;image=img/lib/mscae/Databricks.svg;" vertex="1" parent="1">
          <mxGeometry x="650" y="90" width="50" height="48" as="geometry" />
        </mxCell>
        <mxCell id="bjsVHaiQ5fxiq1dF0tkW-5" value="" style="image;sketch=0;aspect=fixed;html=1;points=[];align=center;fontSize=12;image=img/lib/mscae/Key_Vaults.svg;" vertex="1" parent="1">
          <mxGeometry x="560" y="88" width="48" height="50" as="geometry" />
        </mxCell>
        <mxCell id="bjsVHaiQ5fxiq1dF0tkW-7" value="" style="image;aspect=fixed;html=1;points=[];align=center;fontSize=12;image=img/lib/azure2/analytics/Data_Lake_Store_Gen1.svg;" vertex="1" parent="1">
          <mxGeometry x="600" y="190" width="64" height="52" as="geometry" />
        </mxCell>
        <mxCell id="bjsVHaiQ5fxiq1dF0tkW-8" value="" style="image;aspect=fixed;html=1;points=[];align=center;fontSize=12;image=img/lib/azure2/databases/SQL_Server.svg;" vertex="1" parent="1">
          <mxGeometry x="120" y="230" width="68" height="68" as="geometry" />
        </mxCell>
      </root>
    </mxGraphModel>
  </diagram>
</mxfile>
